<svg width="95" height="51" viewBox="0 0 95 51" fill="none" xmlns="http://www.w3.org/2000/svg">
<g clip-path="url(#clip0_1285_1369)">
<g clip-path="url(#clip1_1285_1369)">
<path d="M69.5 0.5H25.5C11.6929 0.5 0.5 11.6929 0.5 25.5C0.5 39.3071 11.6929 50.5 25.5 50.5H69.5C83.3071 50.5 94.5 39.3071 94.5 25.5C94.5 11.6929 83.3071 0.5 69.5 0.5Z" fill="black" stroke="white"/>
<path d="M29.6464 24.6462C29.4512 24.8415 29.4512 25.1581 29.6464 25.3534L32.8284 28.5353C33.0237 28.7306 33.3403 28.7306 33.5355 28.5353C33.7308 28.3401 33.7308 28.0235 33.5355 27.8282L30.7071 24.9998L33.5355 22.1714C33.7308 21.9761 33.7308 21.6595 33.5355 21.4643C33.3403 21.269 33.0237 21.269 32.8284 21.4643L29.6464 24.6462ZM64 24.4998H30V25.4998H64V24.4998Z" fill="white"/>
</g>
</g>
<defs>
<clipPath id="clip0_1285_1369">
<rect width="95" height="51" fill="white"/>
</clipPath>
<clipPath id="clip1_1285_1369">
<rect width="95" height="51" fill="white"/>
</clipPath>
</defs>
</svg>
