<svg width="95" height="51" viewBox="0 0 95 51" fill="none" xmlns="http://www.w3.org/2000/svg">
<g clip-path="url(#clip0_1285_1374)">
<g clip-path="url(#clip1_1285_1374)">
<g filter="url(#filter0_i_1285_1374)">
<path d="M25.5 1H69.5C83 1 94 12 94 25.5C94 39 83 50 69.5 50H25.5C12 50 1 39 1 25.5C1 12 12 1 25.5 1Z" fill="url(#paint0_linear_1285_1374)"/>
<path d="M25.5 1H69.5C83 1 94 12 94 25.5C94 39 83 50 69.5 50H25.5C12 50 1 39 1 25.5C1 12 12 1 25.5 1Z" fill="url(#paint1_radial_1285_1374)" fill-opacity="0.3"/>
</g>
<path d="M25.5 1.5H69.5C82.7239 1.5 93.5 12.2761 93.5 25.5C93.5 38.7239 82.7239 49.5 69.5 49.5H25.5C12.2761 49.5 1.5 38.7239 1.5 25.5C1.5 12.2761 12.2761 1.5 25.5 1.5Z" stroke="#FF0000" stroke-opacity="0.2"/>
<path d="M25.5 1.5H69.5C82.7239 1.5 93.5 12.2761 93.5 25.5C93.5 38.7239 82.7239 49.5 69.5 49.5H25.5C12.2761 49.5 1.5 38.7239 1.5 25.5C1.5 12.2761 12.2761 1.5 25.5 1.5Z" stroke="url(#paint2_radial_1285_1374)" stroke-opacity="0.4"/>
<g filter="url(#filter1_i_1285_1374)">
<path d="M25.5 1H69.5C83 1 94 12 94 25.5C94 39 83 50 69.5 50H25.5C12 50 1 39 1 25.5C1 12 12 1 25.5 1Z" fill="url(#paint3_linear_1285_1374)"/>
<path d="M25.5 1H69.5C83 1 94 12 94 25.5C94 39 83 50 69.5 50H25.5C12 50 1 39 1 25.5C1 12 12 1 25.5 1Z" fill="url(#paint4_radial_1285_1374)" fill-opacity="0.3"/>
</g>
<path d="M25.5 1H69.5C83 1 94 12 94 25.5C94 39 83 50 69.5 50H25.5C12 50 1 39 1 25.5C1 12 12 1 25.5 1Z" stroke="#FF0000" stroke-opacity="0.2" stroke-width="2"/>
<path d="M25.5 1H69.5C83 1 94 12 94 25.5C94 39 83 50 69.5 50H25.5C12 50 1 39 1 25.5C1 12 12 1 25.5 1Z" stroke="url(#paint5_radial_1285_1374)" stroke-opacity="0.4" stroke-width="2"/>
<path d="M65.4 24.6001C65.6 24.8001 65.6 25.1001 65.4 25.3001L62.2 28.5001C62 28.7001 61.7 28.7001 61.5 28.5001C61.3 28.3001 61.3 28.0001 61.5 27.8001L64.3 25.0001L61.5 22.2001C61.3 22.0001 61.3 21.7001 61.5 21.5001C61.7 21.3001 62 21.3001 62.2 21.5001L65.4 24.7001V24.6001ZM31 24.5001H65V25.5001H31V24.5001Z" fill="white"/>
</g>
</g>
<defs>
<filter id="filter0_i_1285_1374" x="1" y="1" width="93" height="53" filterUnits="userSpaceOnUse" color-interpolation-filters="sRGB">
<feFlood flood-opacity="0" result="BackgroundImageFix"/>
<feBlend mode="normal" in="SourceGraphic" in2="BackgroundImageFix" result="shape"/>
<feColorMatrix in="SourceAlpha" type="matrix" values="0 0 0 0 0 0 0 0 0 0 0 0 0 0 0 0 0 0 127 0" result="hardAlpha"/>
<feOffset dy="4"/>
<feGaussianBlur stdDeviation="10.25"/>
<feComposite in2="hardAlpha" operator="arithmetic" k2="-1" k3="1"/>
<feColorMatrix type="matrix" values="0 0 0 0 1 0 0 0 0 0 0 0 0 0 0 0 0 0 1 0"/>
<feBlend mode="normal" in2="shape" result="effect1_innerShadow_1285_1374"/>
</filter>
<filter id="filter1_i_1285_1374" x="0" y="0" width="95" height="55" filterUnits="userSpaceOnUse" color-interpolation-filters="sRGB">
<feFlood flood-opacity="0" result="BackgroundImageFix"/>
<feBlend mode="normal" in="SourceGraphic" in2="BackgroundImageFix" result="shape"/>
<feColorMatrix in="SourceAlpha" type="matrix" values="0 0 0 0 0 0 0 0 0 0 0 0 0 0 0 0 0 0 127 0" result="hardAlpha"/>
<feOffset dy="4"/>
<feGaussianBlur stdDeviation="10.25"/>
<feComposite in2="hardAlpha" operator="arithmetic" k2="-1" k3="1"/>
<feColorMatrix type="matrix" values="0 0 0 0 1 0 0 0 0 0 0 0 0 0 0 0 0 0 1 0"/>
<feBlend mode="normal" in2="shape" result="effect1_innerShadow_1285_1374"/>
</filter>
<linearGradient id="paint0_linear_1285_1374" x1="42.1266" y1="1" x2="50.7239" y2="99.1223" gradientUnits="userSpaceOnUse">
<stop stop-color="#FF0000"/>
<stop offset="1" stop-color="#550909"/>
</linearGradient>
<radialGradient id="paint1_radial_1285_1374" cx="0" cy="0" r="1" gradientTransform="matrix(-2.75964 63.21 -49.8947 -6.86765 50.3976 11.29)" gradientUnits="userSpaceOnUse">
<stop stop-color="white"/>
<stop offset="1" stop-color="white" stop-opacity="0"/>
</radialGradient>
<radialGradient id="paint2_radial_1285_1374" cx="0" cy="0" r="1" gradientTransform="matrix(-0.460397 34.055 -32.7093 -1.12703 49.495 1)" gradientUnits="userSpaceOnUse">
<stop stop-color="#FF4848"/>
<stop offset="1" stop-color="#FF1717" stop-opacity="0"/>
</radialGradient>
<linearGradient id="paint3_linear_1285_1374" x1="42.1266" y1="1" x2="50.7239" y2="99.1223" gradientUnits="userSpaceOnUse">
<stop stop-color="#FF0000"/>
<stop offset="1" stop-color="#550909"/>
</linearGradient>
<radialGradient id="paint4_radial_1285_1374" cx="0" cy="0" r="1" gradientTransform="matrix(-2.75964 63.21 -49.8947 -6.86765 50.3976 11.29)" gradientUnits="userSpaceOnUse">
<stop stop-color="white"/>
<stop offset="1" stop-color="white" stop-opacity="0"/>
</radialGradient>
<radialGradient id="paint5_radial_1285_1374" cx="0" cy="0" r="1" gradientTransform="matrix(-0.460397 34.055 -32.7093 -1.12703 49.495 1)" gradientUnits="userSpaceOnUse">
<stop stop-color="#FF4848"/>
<stop offset="1" stop-color="#FF1717" stop-opacity="0"/>
</radialGradient>
<clipPath id="clip0_1285_1374">
<rect width="95" height="51" fill="white"/>
</clipPath>
<clipPath id="clip1_1285_1374">
<rect width="95" height="51" fill="white"/>
</clipPath>
</defs>
</svg>
