<svg width="120" height="70" viewBox="0 0 120 70" fill="none" xmlns="http://www.w3.org/2000/svg">
<path d="M0 10C0 4.47715 4.47715 0 10 0H110C115.523 0 120 4.47715 120 10V60C120 65.5229 115.523 70 110 70H10C4.47715 70 0 65.5229 0 60V10Z" fill="#2A2A2A"/>
<path d="M54.7071 25L52.7751 18.924L50.8571 25H49.8631L47.7071 17.622H48.6731L50.3811 23.614L52.2991 17.622H53.2651L55.1691 23.628L56.8771 17.622H57.8571L55.6871 25H54.7071ZM63.4467 25V23.656C63.0127 24.58 62.1167 25.14 60.9687 25.14C59.4427 25.14 58.4487 24.286 58.4487 22.956C58.4487 21.514 59.5967 20.758 61.8367 20.758C62.2847 20.758 62.6207 20.786 63.3487 20.842V20.226C63.3487 18.994 62.6907 18.266 61.5707 18.266C60.3667 18.266 59.6107 19.008 59.5967 20.212H58.7007C58.7427 18.574 59.8767 17.482 61.5567 17.482C63.2787 17.482 64.2867 18.49 64.2867 20.198V25H63.4467ZM59.3867 22.928C59.3867 23.824 60.0727 24.426 61.1087 24.426C62.4807 24.426 63.3487 23.53 63.3487 22.144V21.486C62.7187 21.43 62.2847 21.416 61.8787 21.416C60.1987 21.416 59.3867 21.906 59.3867 22.928ZM71.8642 22.942C71.8642 24.3 70.7722 25.14 68.9522 25.14C67.1182 25.14 65.9982 24.216 65.8582 22.69H66.7962C66.8662 23.74 67.6922 24.398 68.9522 24.398C70.1562 24.398 70.8842 23.936 70.8842 23.096C70.8842 22.368 70.4642 22.032 69.3442 21.808L68.2802 21.598C66.8802 21.332 66.1382 20.646 66.1382 19.582C66.1382 18.35 67.2302 17.482 68.8402 17.482C70.5342 17.482 71.6542 18.392 71.7662 19.862H70.8422C70.7442 18.84 70.0022 18.238 68.8402 18.238C67.8042 18.238 67.0902 18.728 67.0902 19.498C67.0902 20.226 67.5382 20.576 68.6302 20.786L69.7362 20.996C71.2062 21.276 71.8642 21.892 71.8642 22.942Z" fill="white"/>
<path d="M51.3019 52.33V54.34C50.1619 55 48.9919 55.3 47.3119 55.3C42.6619 55.3 39.5719 52.36 38.8219 47.2H35.6719V45.82H38.6419C38.6119 45.19 38.6419 43.9 38.6719 43.21H35.6719V41.83H38.8819C39.8119 37.09 42.8419 34.42 47.3119 34.42C48.9919 34.42 50.1619 34.69 51.3019 35.35V37.42C50.2219 36.64 49.0519 36.31 47.5819 36.31C44.1319 36.31 41.8819 38.23 41.1319 41.83H48.1219V43.21H40.7719C40.7119 43.81 40.6819 45.1 40.7119 45.82H48.1219V47.2H41.0119C41.6419 51.22 43.9819 53.41 47.5819 53.41C48.9919 53.41 50.2519 53.05 51.3019 52.33ZM60.4849 34.45C64.5349 34.45 67.5349 37.36 67.5349 41.08C67.5349 43.57 66.5449 45.13 64.8349 47.29L58.7449 55H56.3449L62.4349 47.26C61.6249 47.59 60.7849 47.71 60.0349 47.71C56.2549 47.71 53.4049 45.1 53.4049 41.14C53.4049 37.36 56.4049 34.45 60.4849 34.45ZM60.4549 36.19C57.6049 36.19 55.5649 38.26 55.5649 41.08C55.5649 44.11 57.6049 46.12 60.4549 46.12C63.2449 46.12 65.3749 44.38 65.3749 41.14C65.3749 38.26 63.2449 36.19 60.4549 36.19ZM76.9205 34.45C80.9705 34.45 83.9705 37.36 83.9705 41.08C83.9705 43.57 82.9805 45.13 81.2705 47.29L75.1805 55H72.7805L78.8705 47.26C78.0605 47.59 77.2205 47.71 76.4705 47.71C72.6905 47.71 69.8405 45.1 69.8405 41.14C69.8405 37.36 72.8405 34.45 76.9205 34.45ZM76.8905 36.19C74.0405 36.19 72.0005 38.26 72.0005 41.08C72.0005 44.11 74.0405 46.12 76.8905 46.12C79.6805 46.12 81.8105 44.38 81.8105 41.14C81.8105 38.26 79.6805 36.19 76.8905 36.19Z" fill="white"/>
</svg>
